<svg width="107" height="77" viewBox="0 0 107 77" fill="none" xmlns="http://www.w3.org/2000/svg">
<path d="M7.16895 37.0371L3.28652 62.0572C2.94613 64.2508 4.45712 66.302 6.65302 66.6273L66.2659 75.4589C68.6888 75.8178 71.123 74.8843 72.6845 72.9974L104.848 34.1332C105.676 33.1323 105.967 31.7914 105.627 30.5373L99.6689 8.53711L64.1689 43.5371L7.16895 37.0371Z" fill="#D9D9D9"/>
<mask id="mask0_189_211" style="mask-type:alpha" maskUnits="userSpaceOnUse" x="3" y="8" width="103" height="68">
<path d="M7.16895 37.0371L3.28652 62.0572C2.94613 64.2508 4.45712 66.302 6.65302 66.6273L66.2659 75.4589C68.6888 75.8178 71.123 74.8843 72.6845 72.9974L104.848 34.1332C105.676 33.1323 105.967 31.7914 105.627 30.5373L99.6689 8.53711L64.1689 43.5371L7.16895 37.0371Z" fill="#D9D9D9"/>
</mask>
<g mask="url(#mask0_189_211)">
<path d="M100.381 9.86328L61.8794 45.3633L69.6773 76.5114L105.234 33.8904C106.074 32.8829 106.367 31.5273 106.018 30.2627L100.381 9.86328Z" fill="#CDCDCD"/>
</g>
<path d="M48.9262 4.34862C64.8632 7.86244 76.8991 8.96674 93.261 9.24792C96.3004 9.30016 97.1932 11.0302 95.3774 12.8917C90.1416 18.2594 82.4128 26.1096 75.4246 32.924C71.9264 36.3352 68.6462 39.4552 65.9734 41.8632C64.6339 43.07 63.4863 44.0624 62.5658 44.8077C62.0446 45.2297 61.6796 45.5034 61.4545 45.6663C61.3053 45.6956 61.0988 45.7317 60.826 45.7703C59.7661 45.9206 58.2635 46.0299 56.3397 46.0581C52.5206 46.1139 47.6188 45.8435 42.282 45.246C31.5939 44.0494 19.7031 41.6034 11.8238 38.2114C10.694 37.725 10.6377 36.5655 11.9762 35.2351L40.41 6.97496C42.3448 5.05192 46.3426 3.77899 48.9262 4.34862Z" fill="#656ADF" stroke="white" stroke-width="7"/>
<path d="M40.6586 28.4596L53.0008 16.1174L60.4704 17.1008C61.7548 17.2699 62.6978 17.5986 63.2995 18.087C63.9012 18.5754 64.1422 19.1823 64.0225 19.9076C63.9027 20.633 63.405 21.4336 62.5291 22.3094C61.6452 23.1933 60.6038 23.9223 59.4049 24.4965C58.2117 25.0714 56.9446 25.4683 55.6036 25.6873C54.2682 25.9071 52.9415 25.9302 51.6233 25.7567L47.1618 25.1693L49.7652 22.5659L53.2804 23.0286C53.8324 23.1013 54.3711 23.0949 54.8964 23.0095C55.4313 22.9208 55.9316 22.7616 56.3971 22.5319C56.8683 22.303 57.2787 22.0137 57.6282 21.6642C57.9818 21.3106 58.1761 20.9952 58.2111 20.7179C58.2558 20.4374 58.1473 20.2049 57.8855 20.0204C57.6334 19.8326 57.2313 19.7024 56.6793 19.6297L55.0231 19.4117L45.3567 29.0781L40.6586 28.4596Z" fill="white"/>
</svg>
