<svg width="79" height="57" viewBox="0 0 79 57" fill="none" xmlns="http://www.w3.org/2000/svg">
<path d="M5.29513 27.3572L2.58877 44.7982C2.24838 46.9918 3.75936 49.0431 5.95527 49.3684L47.9272 55.5864C50.35 55.9454 52.7842 55.0119 54.3458 53.125L77.1007 25.6294C77.9291 24.6285 78.2197 23.2876 77.8801 22.0335L73.6204 6.30566L47.3983 32.1585L5.29513 27.3572Z" fill="#D9D9D9"/>
<mask id="mask0_143_271" style="mask-type:alpha" maskUnits="userSpaceOnUse" x="2" y="6" width="77" height="50">
<path d="M5.29513 27.3577L2.58877 44.7987C2.24838 46.9923 3.75936 49.0436 5.95527 49.3689L47.9272 55.5869C50.35 55.9459 52.7842 55.0124 54.3458 53.1255L77.1007 25.6299C77.9291 24.629 78.2197 23.2881 77.8801 22.034L73.6204 6.30615L47.3983 32.159L5.29513 27.3577Z" fill="#D9D9D9"/>
</mask>
<g mask="url(#mask0_143_271)">
<path d="M74.1465 7.28564L45.707 33.5078L51.467 56.5154L77.38 25.4537C78.2204 24.4462 78.5134 23.0906 78.164 21.826L74.1465 7.28564Z" fill="#CDCDCD"/>
</g>
<path d="M29.0257 6.97497C30.9471 5.06527 34.9653 3.76755 37.6336 4.32129C47.5586 6.38103 55.639 7.16578 65.7725 7.4281C68.8385 7.50747 69.7022 9.26084 67.89 11.1114C63.8606 15.2264 58.5154 20.6255 53.7905 25.2031C51.4239 27.4959 49.2463 29.5501 47.4848 31.122C46.6012 31.9105 45.8617 32.5423 45.2818 33.0065C45.1951 33.0758 45.1168 33.1375 45.0465 33.1922C44.4213 33.2732 43.5129 33.341 42.3169 33.3646C39.7065 33.4159 36.3012 33.2473 32.5308 32.8471C24.9853 32.0463 16.5002 30.3751 10.6059 28.0444C9.49682 27.6058 9.39759 26.4832 10.7468 25.1423L29.0257 6.97497ZM45.6652 33.0869C45.6662 33.0874 45.6456 33.0931 45.6003 33.1028C45.6415 33.0913 45.6641 33.0865 45.6652 33.0869Z" fill="#656ADF" stroke="white" stroke-width="7"/>
<path d="M26.0736 25.3107L38.4158 12.9685L45.8855 13.9519C47.1698 14.1209 48.1129 14.4497 48.7146 14.9381C49.3162 15.4265 49.5572 16.0334 49.4375 16.7587C49.3178 17.484 48.82 18.2846 47.9442 19.1605C47.0603 20.0444 46.0189 20.7734 44.82 21.3476C43.6267 21.9225 42.3596 22.3194 41.0186 22.5384C39.6833 22.7582 38.3565 22.7813 37.0383 22.6077L32.5768 22.0204L35.1803 19.4169L38.6954 19.8797C39.2475 19.9524 39.7861 19.946 40.3114 19.8606C40.8464 19.7719 41.3466 19.6127 41.8122 19.383C42.2834 19.154 42.6937 18.8648 43.0433 18.5153C43.3968 18.1617 43.5911 17.8463 43.6261 17.569C43.6708 17.2885 43.5623 17.0559 43.3006 16.8714C43.0485 16.6837 42.6464 16.5535 42.0943 16.4808L40.4382 16.2627L30.7717 25.9292L26.0736 25.3107Z" fill="white"/>
</svg>
