<svg width="398" height="164" viewBox="0 0 398 164" fill="none" xmlns="http://www.w3.org/2000/svg">
<path d="M7.30225 37.5L3.41982 62.5201C3.07943 64.7137 4.59042 66.7649 6.78632 67.0902L66.3992 75.9218C68.8221 76.2807 71.2563 75.3472 72.8178 73.4603L104.981 34.5961C105.81 33.5952 106.1 32.2543 105.761 31.0002L99.8022 9L64.3022 44L7.30225 37.5Z" fill="#B9B9B9"/>
<mask id="mask0_86_660" style="mask-type:alpha" maskUnits="userSpaceOnUse" x="3" y="9" width="103" height="67">
<path d="M7.30225 37.5002L3.41982 62.5203C3.07943 64.7139 4.59042 66.7652 6.78632 67.0905L66.3992 75.922C68.8221 76.281 71.2563 75.3475 72.8178 73.4606L104.981 34.5964C105.81 33.5954 106.1 32.2545 105.761 31.0004L99.8022 9.00024L64.3022 44.0002L7.30225 37.5002Z" fill="#B0B0B0"/>
</mask>
<g mask="url(#mask0_86_660)">
<path d="M100.515 10.3262L62.0127 45.8262L69.8106 76.9743L105.367 34.3533C106.207 33.3458 106.5 31.9902 106.151 30.7256L100.515 10.3262Z" fill="#A0A0A0"/>
</g>
<path d="M40.5433 7.43785C42.4781 5.51481 46.4759 4.24188 49.0595 4.81152C64.9965 8.32533 77.0324 9.42963 93.3943 9.71081C96.4337 9.76305 97.3265 11.4931 95.5107 13.3546C90.2749 18.7223 82.5461 26.5725 75.5579 33.3869C72.0597 36.7981 68.7795 39.9181 66.1067 42.3261C64.7672 43.5329 63.6196 44.5253 62.6991 45.2706C62.1779 45.6926 61.8129 45.9663 61.5878 46.1292C61.4386 46.1585 61.2321 46.1945 60.9593 46.2332C59.8994 46.3834 58.3968 46.4928 56.473 46.521C52.6539 46.5768 47.7521 46.3064 42.4153 45.7089C31.7272 44.5123 19.8364 42.0663 11.9571 38.6743C10.8273 38.1879 10.771 37.0284 12.1095 35.698L40.5433 7.43785Z" fill="#2C2D44" stroke="white" stroke-width="7"/>
<path d="M40.7919 28.9227L53.1341 16.5805L60.6037 17.5639C61.8881 17.733 62.8311 18.0618 63.4328 18.5502C64.0345 19.0386 64.2755 19.6454 64.1558 20.3708C64.036 21.0961 63.5383 21.8967 62.6624 22.7725C61.7785 23.6564 60.7371 24.3854 59.5382 24.9596C58.345 25.5345 57.0779 25.9315 55.7369 26.1505C54.4015 26.3702 53.0748 26.3933 51.7566 26.2198L47.2951 25.6324L49.8985 23.029L53.4137 23.4918C53.9657 23.5644 54.5044 23.5581 55.0297 23.4726C55.5646 23.3839 56.0649 23.2247 56.5304 22.9951C57.0016 22.7661 57.412 22.4769 57.7615 22.1273C58.1151 21.7738 58.3094 21.4584 58.3444 21.1811C58.3891 20.9005 58.2806 20.668 58.0188 20.4835C57.7667 20.2957 57.3646 20.1655 56.8126 20.0928L55.1564 19.8748L45.49 29.5413L40.7919 28.9227Z" fill="white"/>
<path d="M93.5 45.4998L89.6176 70.5198C89.2772 72.7134 90.7882 74.7647 92.9841 75.09L152.597 83.9215C155.02 84.2805 157.454 83.347 159.016 81.4601L191.179 42.5959C192.007 41.5949 192.298 40.254 191.958 39L186 16.9998L150.5 51.9998L93.5 45.4998Z" fill="#B9B9B9"/>
<mask id="mask1_86_660" style="mask-type:alpha" maskUnits="userSpaceOnUse" x="89" y="17" width="104" height="67">
<path d="M93.5 45.5L89.6176 70.5201C89.2772 72.7137 90.7882 74.7649 92.9841 75.0902L152.597 83.9218C155.02 84.2807 157.454 83.3472 159.016 81.4603L191.179 42.5961C192.007 41.5952 192.298 40.2543 191.958 39.0002L186 17L150.5 52L93.5 45.5Z" fill="#B0B0B0"/>
</mask>
<g mask="url(#mask1_86_660)">
<path d="M186.712 18.3259L148.21 53.8259L156.008 84.9741L191.565 42.353C192.405 41.3455 192.698 39.99 192.349 38.7253L186.712 18.3259Z" fill="#A0A0A0"/>
</g>
<path d="M126.741 15.4376C128.676 13.5146 132.674 12.2416 135.257 12.8113C151.194 16.3251 163.23 17.4294 179.592 17.7106C182.631 17.7628 183.524 19.4928 181.708 21.3543C176.473 26.722 168.744 34.5722 161.756 41.3867C158.257 44.7979 154.977 47.9178 152.304 50.3259C150.965 51.5327 149.817 52.5251 148.897 53.2704C148.376 53.6924 148.011 53.9661 147.786 54.129C147.636 54.1582 147.43 54.1943 147.157 54.233C146.097 54.3832 144.595 54.4926 142.671 54.5207C138.852 54.5766 133.95 54.3061 128.613 53.7087C117.925 52.5121 106.034 50.0661 98.1549 46.674C97.0251 46.1876 96.9687 45.0281 98.3072 43.6978L126.741 15.4376Z" fill="#2C2D44" stroke="white" stroke-width="7"/>
<path d="M126.99 36.9225L139.332 24.5803L151.804 26.2222L149.104 28.9221L141.33 27.8987L139.209 30.02L146.34 30.9589L143.641 33.6587L136.509 32.7198L134.388 34.8412L142.128 35.8602L139.428 38.56L126.99 36.9225Z" fill="white"/>
<path d="M176.5 54.4998L172.618 79.5198C172.277 81.7134 173.788 83.7647 175.984 84.09L235.597 92.9215C238.02 93.2805 240.454 92.347 242.016 90.4601L274.179 51.5959C275.007 50.5949 275.298 49.254 274.958 48L269 25.9998L233.5 60.9998L176.5 54.4998Z" fill="#B9B9B9"/>
<mask id="mask2_86_660" style="mask-type:alpha" maskUnits="userSpaceOnUse" x="172" y="26" width="104" height="67">
<path d="M176.5 54.5L172.618 79.5201C172.277 81.7137 173.788 83.7649 175.984 84.0902L235.597 92.9218C238.02 93.2807 240.454 92.3472 242.016 90.4603L274.179 51.5961C275.007 50.5952 275.298 49.2543 274.958 48.0002L269 26L233.5 61L176.5 54.5Z" fill="#B0B0B0"/>
</mask>
<g mask="url(#mask2_86_660)">
<path d="M269.712 27.3259L231.21 62.8259L239.008 93.9741L274.565 51.353C275.405 50.3455 275.698 48.99 275.349 47.7253L269.712 27.3259Z" fill="#A0A0A0"/>
</g>
<path d="M209.741 24.4376C211.676 22.5146 215.674 21.2416 218.257 21.8113C234.194 25.3251 246.23 26.4294 262.592 26.7106C265.631 26.7628 266.524 28.4928 264.708 30.3543C259.473 35.722 251.744 43.5722 244.756 50.3867C241.257 53.7979 237.977 56.9178 235.304 59.3259C233.965 60.5327 232.817 61.5251 231.897 62.2704C231.376 62.6924 231.011 62.9661 230.786 63.129C230.636 63.1582 230.43 63.1943 230.157 63.233C229.097 63.3832 227.595 63.4926 225.671 63.5207C221.852 63.5766 216.95 63.3061 211.613 62.7087C200.925 61.5121 189.034 59.0661 181.155 55.674C180.025 55.1876 179.969 54.0281 181.307 52.6978L209.741 24.4376Z" fill="#2C2D44" stroke="white" stroke-width="7"/>
<path d="M209.99 45.9225L222.332 33.5803L234.804 35.2222L232.104 37.9221L224.33 36.8987L222.209 39.02L229.34 39.9589L226.641 42.6587L219.509 41.7198L217.388 43.8412L225.128 44.8602L222.428 47.56L209.99 45.9225Z" fill="white"/>
<path d="M258.5 63.7498L254.618 88.7698C254.277 90.9634 255.788 93.0147 257.984 93.34L317.597 102.172C320.02 102.53 322.454 101.597 324.016 99.7101L356.179 60.8459C357.007 59.8449 357.298 58.504 356.958 57.25L351 35.2498L315.5 70.2498L258.5 63.7498Z" fill="#B9B9B9"/>
<mask id="mask3_86_660" style="mask-type:alpha" maskUnits="userSpaceOnUse" x="254" y="35" width="104" height="68">
<path d="M258.5 63.75L254.618 88.7701C254.277 90.9637 255.788 93.0149 257.984 93.3402L317.597 102.172C320.02 102.531 322.454 101.597 324.016 99.7103L356.179 60.8461C357.007 59.8452 357.298 58.5043 356.958 57.2502L351 35.25L315.5 70.25L258.5 63.75Z" fill="#B0B0B0"/>
</mask>
<g mask="url(#mask3_86_660)">
<path d="M351.712 36.5759L313.21 72.0759L321.008 103.224L356.565 60.603C357.405 59.5955 357.698 58.24 357.349 56.9753L351.712 36.5759Z" fill="#A0A0A0"/>
</g>
<path d="M291.741 33.6876C293.676 31.7646 297.674 30.4916 300.257 31.0613C316.194 34.5751 328.23 35.6794 344.592 35.9606C347.631 36.0128 348.524 37.7428 346.708 39.6043C341.473 44.972 333.744 52.8222 326.756 59.6367C323.257 63.0479 319.977 66.1678 317.304 68.5759C315.965 69.7827 314.817 70.7751 313.897 71.5204C313.376 71.9424 313.011 72.2161 312.786 72.379C312.636 72.4082 312.43 72.4443 312.157 72.483C311.097 72.6332 309.595 72.7426 307.671 72.7707C303.852 72.8266 298.95 72.5561 293.613 71.9587C282.925 70.7621 271.034 68.3161 263.155 64.924C262.025 64.4376 261.969 63.2781 263.307 61.9478L291.741 33.6876Z" fill="#2C2D44" stroke="white" stroke-width="7"/>
<path d="M291.99 55.1725L304.332 42.8303L311.801 43.8137C313.086 43.9828 314.043 44.2975 314.673 44.7577C315.303 45.218 315.572 45.7968 315.48 46.494C315.388 47.1912 314.905 47.9777 314.029 48.8536C313.145 49.7374 312.124 50.4464 310.965 50.9804C309.812 51.5151 308.585 51.8719 307.284 52.0507C305.989 52.2303 304.682 52.2333 303.364 52.0598L298.903 51.4724L301.506 48.8689L305.021 49.3317C305.573 49.4044 306.092 49.4181 306.577 49.3729C307.072 49.3243 307.532 49.2053 307.957 49.0158C308.388 48.827 308.778 48.5579 309.128 48.2083C309.482 47.8548 309.662 47.5534 309.669 47.3043C309.685 47.0519 309.549 46.8475 309.259 46.6911C308.979 46.5314 308.562 46.4153 308.01 46.3426L306.354 46.1245L296.688 55.791L291.99 55.1725ZM307.794 50.8425L306.456 57.077L301.352 56.4051L302.792 50.184L307.794 50.8425Z" fill="white"/>
<path d="M42.7075 97.4998L38.8251 122.52C38.4847 124.713 39.9957 126.765 42.1916 127.09L101.805 135.922C104.227 136.28 106.662 135.347 108.223 133.46L140.387 94.5959C141.215 93.5949 141.506 92.254 141.166 91L135.208 68.9998L99.7075 104L42.7075 97.4998Z" fill="#D9D9D9"/>
<mask id="mask4_86_660" style="mask-type:alpha" maskUnits="userSpaceOnUse" x="38" y="69" width="104" height="67">
<path d="M42.7075 97.5L38.8251 122.52C38.4847 124.714 39.9957 126.765 42.1916 127.09L101.805 135.922C104.227 136.281 106.662 135.347 108.223 133.46L140.387 94.5961C141.215 93.5952 141.506 92.2543 141.166 91.0002L135.208 69L99.7075 104L42.7075 97.5Z" fill="#D9D9D9"/>
</mask>
<g mask="url(#mask4_86_660)">
<path d="M135.92 70.3259L97.418 105.826L105.216 136.974L140.772 94.353C141.613 93.3455 141.906 91.99 141.556 90.7253L135.92 70.3259Z" fill="#CDCDCD"/>
</g>
<path d="M75.9485 67.4376C77.8834 65.5146 81.8812 64.2416 84.4648 64.8113C100.402 68.3251 112.438 69.4294 128.8 69.7106C131.839 69.7628 132.732 71.4928 130.916 73.3543C125.68 78.722 117.951 86.5722 110.963 93.3867C107.465 96.7979 104.185 99.9178 101.512 102.326C100.172 103.533 99.0249 104.525 98.1044 105.27C97.5832 105.692 97.2181 105.966 96.9931 106.129C96.8439 106.158 96.6374 106.194 96.3645 106.233C95.3047 106.383 93.802 106.493 91.8782 106.521C88.0592 106.577 83.1574 106.306 77.8206 105.709C67.1325 104.512 55.2417 102.066 47.3624 98.674C46.2326 98.1876 46.1762 97.0281 47.5147 95.6978L75.9485 67.4376Z" fill="#656ADF" stroke="white" stroke-width="7"/>
<path d="M76.1971 88.9225L88.5394 76.5803L96.009 77.5637C97.2934 77.7328 98.2364 78.0615 98.8381 78.5499C99.4398 79.0383 99.6808 79.6452 99.561 80.3705C99.4413 81.0959 98.9435 81.8964 98.0677 82.7723C97.1838 83.6562 96.1424 84.3852 94.9435 84.9594C93.7503 85.5343 92.4831 85.9312 91.1422 86.1502C89.8068 86.37 88.48 86.3931 87.1619 86.2196L82.7004 85.6322L85.3038 83.0287L88.8189 83.4915C89.371 83.5642 89.9097 83.5578 90.435 83.4724C90.9699 83.3837 91.4701 83.2245 91.9357 82.9948C92.4069 82.7659 92.8173 82.4766 93.1668 82.1271C93.5203 81.7735 93.7146 81.4581 93.7497 81.1808C93.7944 80.9003 93.6858 80.6678 93.4241 80.4833C93.172 80.2955 92.7699 80.1653 92.2179 80.0926L90.5617 79.8745L80.8952 89.541L76.1971 88.9225Z" fill="white"/>
<path d="M126.064 107.988L122.182 133.008C121.842 135.202 123.353 137.253 125.549 137.579L185.161 146.41C187.584 146.769 190.018 145.836 191.58 143.949L223.744 105.084C224.572 104.083 224.862 102.743 224.523 101.488L218.564 79.4883L183.064 114.488L126.064 107.988Z" fill="#D9D9D9"/>
<mask id="mask5_86_660" style="mask-type:alpha" maskUnits="userSpaceOnUse" x="122" y="79" width="103" height="68">
<path d="M126.064 107.989L122.182 133.009C121.842 135.202 123.353 137.253 125.549 137.579L185.161 146.41C187.584 146.769 190.018 145.836 191.58 143.949L223.744 105.085C224.572 104.084 224.862 102.743 224.523 101.489L218.564 79.4885L183.064 114.489L126.064 107.989Z" fill="#D9D9D9"/>
</mask>
<g mask="url(#mask5_86_660)">
<path d="M219.277 80.8145L180.775 116.314L188.573 147.463L224.129 104.842C224.97 103.834 225.263 102.478 224.913 101.214L219.277 80.8145Z" fill="#CDCDCD"/>
</g>
<path d="M159.305 77.9261C161.24 76.0031 165.238 74.7302 167.822 75.2998C183.759 78.8136 195.795 79.9179 212.156 80.1991C215.196 80.2513 216.089 81.9813 214.273 83.8429C209.037 89.2106 201.308 97.0607 194.32 103.875C190.822 107.286 187.542 110.406 184.869 112.814C183.529 114.021 182.382 115.014 181.461 115.759C180.94 116.181 180.575 116.455 180.35 116.618C180.201 116.647 179.994 116.683 179.721 116.721C178.662 116.872 177.159 116.981 175.235 117.009C171.416 117.065 166.514 116.795 161.178 116.197C150.489 115.001 138.599 112.555 130.719 109.163C129.59 108.676 129.533 107.517 130.872 106.186L159.305 77.9261Z" fill="#656ADF" stroke="white" stroke-width="7"/>
<path d="M159.554 99.411L171.896 87.0688L179.366 88.0522C180.65 88.2213 181.607 88.536 182.237 88.9963C182.867 89.4565 183.136 90.0353 183.045 90.7325C182.953 91.4297 182.469 92.2162 181.593 93.0921C180.709 93.976 179.688 94.6849 178.529 95.2189C177.376 95.7536 176.149 96.1104 174.849 96.2892C173.553 96.4688 172.247 96.4718 170.929 96.2983L166.467 95.7109L169.071 93.1075L172.586 93.5702C173.138 93.6429 173.656 93.6566 174.141 93.6114C174.636 93.5629 175.096 93.4438 175.522 93.2543C175.953 93.0656 176.343 92.7964 176.692 92.4469C177.046 92.0933 177.226 91.792 177.233 91.5428C177.25 91.2904 177.113 91.086 176.823 90.9296C176.543 90.77 176.127 90.6538 175.575 90.5811L173.919 90.3631L164.252 100.03L159.554 99.411ZM175.359 95.0811L174.02 101.316L168.916 100.644L170.356 94.4225L175.359 95.0811Z" fill="white"/>
<path d="M213.5 115.5L209.618 140.52C209.277 142.713 210.788 144.765 212.984 145.09L272.597 153.922C275.02 154.28 277.454 153.347 279.016 151.46L311.179 112.596C312.007 111.595 312.298 110.254 311.958 109L306 86.9998L270.5 122L213.5 115.5Z" fill="#D9D9D9"/>
<mask id="mask6_86_660" style="mask-type:alpha" maskUnits="userSpaceOnUse" x="209" y="87" width="104" height="67">
<path d="M213.5 115.5L209.618 140.52C209.277 142.714 210.788 144.765 212.984 145.09L272.597 153.922C275.02 154.281 277.454 153.347 279.016 151.46L311.179 112.596C312.007 111.595 312.298 110.254 311.958 109L306 87L270.5 122L213.5 115.5Z" fill="#D9D9D9"/>
</mask>
<g mask="url(#mask6_86_660)">
<path d="M306.712 88.3259L268.21 123.826L276.008 154.974L311.565 112.353C312.405 111.346 312.698 109.99 312.349 108.725L306.712 88.3259Z" fill="#CDCDCD"/>
</g>
<path d="M246.741 85.4376C248.676 83.5146 252.674 82.2416 255.257 82.8113C271.194 86.3251 283.23 87.4294 299.592 87.7106C302.631 87.7628 303.524 89.4928 301.708 91.3543C296.473 96.722 288.744 104.572 281.756 111.387C278.257 114.798 274.977 117.918 272.304 120.326C270.965 121.533 269.817 122.525 268.897 123.27C268.376 123.692 268.011 123.966 267.786 124.129C267.636 124.158 267.43 124.194 267.157 124.233C266.097 124.383 264.595 124.493 262.671 124.521C258.852 124.577 253.95 124.306 248.613 123.709C237.925 122.512 226.034 120.066 218.155 116.674C217.025 116.188 216.969 115.028 218.307 113.698L246.741 85.4376Z" fill="#656ADF" stroke="white" stroke-width="7"/>
<path d="M246.99 106.923L259.332 94.5803L271.804 96.2222L269.104 98.9221L261.33 97.8987L259.209 100.02L266.34 100.959L263.641 103.659L256.509 102.72L254.388 104.841L262.128 105.86L259.428 108.56L246.99 106.923Z" fill="white"/>
<path d="M298.502 124.5L294.62 149.52C294.28 151.713 295.791 153.765 297.987 154.09L357.599 162.922C360.022 163.28 362.456 162.347 364.018 160.46L396.182 121.596C397.01 120.595 397.3 119.254 396.961 118L391.002 95.9998L355.502 131L298.502 124.5Z" fill="#D9D9D9"/>
<mask id="mask7_86_660" style="mask-type:alpha" maskUnits="userSpaceOnUse" x="294" y="96" width="104" height="67">
<path d="M298.502 124.5L294.62 149.52C294.28 151.714 295.791 153.765 297.987 154.09L357.599 162.922C360.022 163.281 362.456 162.347 364.018 160.46L396.182 121.596C397.01 120.595 397.3 119.254 396.961 118L391.002 96L355.502 131L298.502 124.5Z" fill="#D9D9D9"/>
</mask>
<g mask="url(#mask7_86_660)">
<path d="M391.715 97.3259L353.213 132.826L361.011 163.974L396.567 121.353C397.408 120.346 397.701 118.99 397.351 117.725L391.715 97.3259Z" fill="#CDCDCD"/>
</g>
<path d="M331.743 94.4376C333.678 92.5146 337.676 91.2416 340.26 91.8113C356.197 95.3251 368.233 96.4294 384.594 96.7106C387.634 96.7628 388.527 98.4928 386.711 100.354C381.475 105.722 373.746 113.572 366.758 120.387C363.26 123.798 359.98 126.918 357.307 129.326C355.967 130.533 354.82 131.525 353.899 132.27C353.378 132.692 353.013 132.966 352.788 133.129C352.639 133.158 352.432 133.194 352.159 133.233C351.1 133.383 349.597 133.493 347.673 133.521C343.854 133.577 338.952 133.306 333.616 132.709C322.927 131.512 311.037 129.066 303.157 125.674C302.028 125.188 301.971 124.028 303.31 122.698L331.743 94.4376Z" fill="#656ADF" stroke="white" stroke-width="7"/>
<path d="M331.992 115.923L344.334 103.58L351.804 104.564C353.088 104.733 354.031 105.062 354.633 105.55C355.235 106.038 355.476 106.645 355.356 107.371C355.236 108.096 354.738 108.896 353.863 109.772C352.979 110.656 351.937 111.385 350.738 111.959C349.545 112.534 348.278 112.931 346.937 113.15C345.602 113.37 344.275 113.393 342.957 113.22L338.495 112.632L341.099 110.029L344.614 110.492C345.166 110.564 345.705 110.558 346.23 110.472C346.765 110.384 347.265 110.224 347.731 109.995C348.202 109.766 348.612 109.477 348.962 109.127C349.315 108.774 349.51 108.458 349.545 108.181C349.589 107.9 349.481 107.668 349.219 107.483C348.967 107.295 348.565 107.165 348.013 107.093L346.357 106.875L336.69 116.541L331.992 115.923Z" fill="white"/>
</svg>
