<svg width="354" height="160" viewBox="0 0 354 160" fill="none" xmlns="http://www.w3.org/2000/svg">
<path d="M2.61307 25.4594L2.3543 22.0512C4.55784 22.2614 6.05983 21.96 6.86026 21.1469C7.67267 20.3221 8.00149 18.8906 7.84672 16.8522L7.46965 11.886C7.30305 9.69177 7.43872 7.91952 7.87666 6.56923C8.32756 5.22017 9.05488 4.20683 10.0586 3.52919C11.0624 2.85155 12.3176 2.43636 13.8245 2.28362C15.3303 2.11789 17.0554 2.12774 18.9997 2.31318L19.4108 7.72728C17.8813 7.58141 16.7245 7.68375 15.9404 8.03433C15.1554 8.37191 14.6403 8.96082 14.3953 9.80104C14.1632 10.6425 14.0984 11.7384 14.2009 13.0887L14.6859 19.4765C14.7619 20.4762 14.6643 21.395 14.3934 22.2327C14.1224 23.0705 13.5649 23.7778 12.7208 24.3546C11.8757 24.9185 10.6379 25.3096 9.00731 25.5279C7.38873 25.7344 5.25732 25.7116 2.61307 25.4594ZM22.7571 51.7996C20.8128 51.6142 19.0641 51.2928 17.5109 50.8353C15.9587 50.3908 14.6216 49.7283 13.4996 48.848C12.3775 47.9676 11.4846 46.7997 10.8208 45.3443C10.1699 43.8902 9.76115 42.066 9.59455 39.8718L9.21896 34.9251C9.06419 32.8867 8.51208 31.3776 7.56265 30.3976C6.62519 29.406 5.05468 28.8051 2.85114 28.5949L2.59237 25.1867C5.23662 25.4389 7.39613 25.8318 9.07089 26.3653C10.7576 26.8871 12.0733 27.5217 13.018 28.2692C13.9617 29.0036 14.635 29.8219 15.0381 30.7239C15.4411 31.6259 15.6801 32.5703 15.7551 33.5571L16.2401 39.9449C16.3426 41.2952 16.5759 42.4195 16.9401 43.3179C17.3173 44.2174 17.9304 44.9204 18.7795 45.4267C19.6287 45.933 20.818 46.2591 22.3475 46.405L22.7571 51.7996ZM2.85114 28.5949L2.3543 22.0512L8.51774 22.6391L9.01458 29.1827L2.85114 28.5949Z" fill="#F1DB65"/>
<path d="M49.4653 45.9365L35.1989 4.97953L42.9567 5.71941L52.3566 35.7138L52.726 35.7491L58.1611 7.16951L65.2189 7.84263L75.1258 37.9047L75.4758 37.9381L80.4234 9.29273L88.1811 10.0326L79.9715 48.846L72.8553 48.1673L62.7588 19.4212L62.4477 19.3915L56.5815 46.6152L49.4653 45.9365ZM106.118 51.9197C103.124 51.6341 100.491 50.7643 98.2183 49.3102C95.9581 47.8444 94.1574 45.9068 92.8163 43.4974C91.4743 41.0751 90.6845 38.2995 90.4469 35.1704C90.2132 32.0934 90.5915 29.4484 91.5816 27.2357C92.5837 25.0111 94.0919 23.3504 96.1061 22.2536C98.1193 21.1438 100.552 20.7249 103.403 20.9968C105.244 21.1724 107.004 21.6366 108.682 22.3896C110.373 23.1309 111.893 24.1782 113.244 25.5315C114.608 26.8861 115.726 28.5523 116.597 30.5301C117.466 32.4949 118.001 34.7887 118.2 37.4113L118.364 39.5731L93.8853 37.2385L93.5245 32.4865L111.257 34.1777C111.141 32.8261 110.758 31.5974 110.108 30.4913C109.457 29.3723 108.596 28.4588 107.526 27.7509C106.468 27.0443 105.266 26.6267 103.918 26.4981C102.479 26.3609 101.242 26.5909 100.206 27.1882C99.1695 27.7724 98.3895 28.6003 97.8661 29.6718C97.3546 30.7315 97.1432 31.9294 97.2317 33.2654L97.5467 37.4136C97.6788 39.1534 98.1097 40.6768 98.8395 41.9838C99.5683 43.2778 100.528 44.3103 101.719 45.0812C102.909 45.8392 104.269 46.2911 105.798 46.437C106.822 46.5346 107.738 46.4802 108.546 46.2737C109.353 46.0542 110.039 45.6879 110.605 45.1747C111.171 44.6615 111.577 43.9978 111.824 43.1836L118.452 44.5504C118.17 46.2506 117.494 47.6943 116.426 48.8813C115.37 50.0567 113.969 50.9155 112.221 51.4577C110.473 51.987 108.438 52.141 106.118 51.9197ZM129.318 13.9559L132.346 53.8411L125.308 53.1699L122.279 13.2847L129.318 13.9559ZM152.655 56.3581C149.674 56.0738 147.064 55.1739 144.826 53.6586C142.6 52.1446 140.823 50.177 139.494 47.7559C138.177 45.3231 137.403 42.5941 137.174 39.5689C136.943 36.5308 137.323 33.9054 138.313 31.6926C139.302 29.4668 140.81 27.8061 142.837 26.7105C144.877 25.6032 147.354 25.1886 150.271 25.4667C152.695 25.6979 154.874 26.3504 156.809 27.4243C158.755 28.4864 160.347 29.8821 161.585 31.6114C162.822 33.3276 163.6 35.2708 163.919 37.4409L157.192 36.7993C156.811 35.3322 156.071 34.0694 154.974 33.0109C153.889 31.9408 152.498 31.3247 150.8 31.1627C149.361 31.0255 148.127 31.2945 147.097 31.9697C146.067 32.6318 145.301 33.6545 144.802 35.0375C144.315 36.4218 144.148 38.1202 144.3 40.1326C144.455 42.171 144.886 43.9522 145.594 45.4762C146.301 46.9872 147.222 48.1901 148.358 49.0847C149.506 49.9675 150.812 50.4788 152.277 50.6185C153.314 50.7174 154.226 50.611 155.013 50.2994C155.812 49.976 156.462 49.4644 156.962 48.7645C157.462 48.0646 157.775 47.1858 157.9 46.1279L164.628 46.7695C164.62 48.8697 164.14 50.6865 163.189 52.2198C162.236 53.7402 160.868 54.8728 159.084 55.6179C157.3 56.3499 155.157 56.5967 152.655 56.3581ZM184.255 59.3719C181.338 59.0937 178.762 58.21 176.526 56.7206C174.289 55.2313 172.494 53.2748 171.139 50.8513C169.796 48.429 169.008 45.6728 168.774 42.5827C168.539 39.4926 168.917 36.8412 169.907 34.6284C170.91 32.4169 172.432 30.7704 174.473 29.6891C176.514 28.6077 178.993 28.2061 181.909 28.4842C184.826 28.7624 187.402 29.6461 189.639 31.1354C191.875 32.6248 193.665 34.5871 195.008 37.0224C196.364 39.4589 197.159 42.2222 197.394 45.3123C197.628 48.4024 197.244 51.0467 196.239 53.2452C195.248 55.445 193.732 57.0856 191.691 58.167C189.65 59.2484 187.171 59.65 184.255 59.3719ZM183.865 53.7278C185.446 53.8786 186.735 53.5697 187.732 52.8012C188.728 52.0197 189.429 50.9136 189.835 49.483C190.254 48.0535 190.395 46.43 190.257 44.6123C190.118 42.7816 189.726 41.1009 189.082 39.5701C188.45 38.0275 187.57 36.7641 186.44 35.7799C185.31 34.7956 183.954 34.2281 182.373 34.0773C180.753 33.9228 179.438 34.2356 178.429 35.0159C177.433 35.7974 176.726 36.9094 176.308 38.3518C175.902 39.7824 175.769 41.4131 175.908 43.2438C176.046 45.0615 176.43 46.7351 177.061 48.2647C177.705 49.7955 178.592 51.053 179.722 52.0372C180.863 53.0097 182.245 53.5732 183.865 53.7278ZM204.494 60.7221L202.223 30.8083L208.95 31.4499L209.336 36.5329L209.686 36.5663C210.178 34.9118 211.107 33.6728 212.473 32.8492C213.838 32.0127 215.518 31.6896 217.515 31.88C219.537 32.0728 221.279 32.7288 222.74 33.8478C224.214 34.955 225.3 36.3798 225.999 38.1221L226.31 38.1517C226.845 36.5529 227.859 35.3349 229.353 34.4977C230.858 33.6488 232.693 33.3276 234.858 33.534C237.606 33.7961 239.914 34.8799 241.783 36.7853C243.652 38.6908 244.713 41.3119 244.967 44.6486L246.491 64.7275L239.433 64.0544L237.992 45.0661C237.851 43.2095 237.255 41.8057 236.205 40.8548C235.154 39.891 233.915 39.3411 232.489 39.2051C230.791 39.0432 229.503 39.4488 228.625 40.4219C227.759 41.3833 227.389 42.708 227.518 44.3958L228.934 63.0531L222.032 62.3948L220.568 43.1143C220.451 41.5693 219.89 40.2914 218.887 39.2805C217.897 38.2709 216.656 37.695 215.166 37.5529C214.155 37.4565 213.254 37.6283 212.464 38.0686C211.673 38.4958 211.067 39.1533 210.645 40.0412C210.222 40.916 210.058 41.9702 210.152 43.2036L211.533 61.3934L204.494 60.7221ZM266.897 67.2538C263.903 66.9682 261.27 66.0983 258.998 64.6442C256.737 63.1784 254.937 61.2408 253.596 58.8315C252.253 56.4092 251.464 53.6335 251.226 50.5045C250.992 47.4274 251.371 44.7825 252.361 42.5697C253.363 40.3452 254.871 38.6845 256.885 37.5876C258.899 36.4778 261.331 36.0589 264.183 36.3309C266.023 36.5064 267.783 36.9707 269.461 37.7237C271.152 38.4649 272.673 39.5122 274.024 40.8656C275.388 42.2202 276.505 43.8864 277.376 45.8642C278.246 47.829 278.78 50.1227 278.979 52.7454L279.143 54.9071L254.664 52.5725L254.304 47.8205L272.036 49.5117C271.92 48.1602 271.537 46.9314 270.887 45.8253C270.236 44.7063 269.375 43.7928 268.305 43.085C267.248 42.3783 266.045 41.9607 264.697 41.8321C263.258 41.6949 262.021 41.9249 260.985 42.5222C259.949 43.1065 259.169 43.9343 258.645 45.0058C258.134 46.0655 257.922 47.2634 258.011 48.5995L258.326 52.7477C258.458 54.4875 258.889 56.0109 259.619 57.3178C260.348 58.6118 261.307 59.6443 262.498 60.4153C263.688 61.1732 265.048 61.6251 266.578 61.771C267.602 61.8687 268.517 61.8143 269.325 61.6077C270.132 61.3882 270.819 61.0219 271.384 60.5087C271.95 59.9956 272.357 59.3318 272.604 58.5176L279.232 59.8844C278.949 61.5846 278.274 63.0283 277.206 64.2154C276.15 65.3907 274.748 66.2495 273 66.7918C271.252 67.321 269.217 67.475 266.897 67.2538ZM312.309 41.3075L312.723 46.7606L295.555 45.1232L295.141 39.6702L312.309 41.3075ZM298.836 32.9075L305.874 33.5788L308.006 61.662C308.078 62.6098 308.276 63.3505 308.6 63.8841C308.935 64.4059 309.35 64.7805 309.843 65.008C310.337 65.2355 310.875 65.3771 311.458 65.4327C311.899 65.4748 312.298 65.4806 312.656 65.4503C313.027 65.4213 313.308 65.39 313.498 65.3566L315.103 70.9812C314.737 71.0752 314.21 71.1667 313.522 71.2558C312.847 71.3461 312.011 71.3566 311.015 71.2874C309.256 71.1712 307.648 70.7536 306.191 70.0346C304.732 69.3026 303.541 68.2738 302.617 66.9483C301.706 65.624 301.186 64.0277 301.057 62.1593L298.836 32.9075ZM333.217 73.5789C330.301 73.3008 327.725 72.417 325.488 70.9277C323.252 69.4383 321.456 67.4819 320.101 65.0583C318.759 62.636 317.971 59.8798 317.736 56.7898C317.502 53.6997 317.879 51.0483 318.869 48.8355C319.873 46.624 321.395 44.9775 323.436 43.8961C325.477 42.8147 327.956 42.4131 330.872 42.6913C333.789 42.9694 336.365 43.8532 338.601 45.3425C340.838 46.8318 342.627 48.7942 343.97 51.2295C345.326 53.666 346.122 56.4293 346.356 59.5194C346.591 62.6094 346.206 65.2537 345.202 67.4523C344.211 69.6521 342.695 71.2927 340.654 72.3741C338.613 73.4555 336.134 73.8571 333.217 73.5789ZM332.827 67.9348C334.409 68.0856 335.698 67.7768 336.695 67.0083C337.691 66.2268 338.392 65.1207 338.798 63.69C339.217 62.2606 339.357 60.637 339.219 58.8193C339.08 56.9887 338.689 55.3079 338.045 53.7771C337.413 52.2346 336.532 50.9712 335.402 49.9869C334.272 49.0027 332.917 48.4352 331.335 48.2844C329.715 48.1298 328.401 48.4427 327.392 49.223C326.396 50.0045 325.689 51.1164 325.271 52.5588C324.865 53.9895 324.731 55.6202 324.87 57.4508C325.008 59.2685 325.393 60.9421 326.024 62.4717C326.667 64.0025 327.554 65.26 328.684 66.2443C329.826 67.2168 331.207 67.7803 332.827 67.9348Z" fill="white"/>
<path d="M11.3315 114.563L8.02782 71.0518L25.166 72.6864C28.4607 73.0006 31.3154 73.8986 33.7301 75.3803C36.1438 76.8479 38.0431 78.7515 39.428 81.0912C40.826 83.4181 41.6347 86.0263 41.854 88.9157C42.0734 91.8051 41.6448 94.2952 40.5682 96.3861C39.4916 98.477 37.8194 100.026 35.5515 101.033C33.2978 102.041 30.5024 102.386 27.1652 102.068L16.2418 101.026L15.682 93.6541L25.1207 94.5543C26.8883 94.7228 28.3216 94.5572 29.4207 94.0574C30.5329 93.5448 31.3304 92.7702 31.8132 91.7335C32.3091 90.684 32.5027 89.444 32.3941 88.0135C32.2844 86.5687 31.8988 85.2805 31.2374 84.1488C30.5889 83.0042 29.6624 82.0792 28.4577 81.3738C27.2519 80.6541 25.7582 80.2093 23.9765 80.0394L17.783 79.4487L20.5157 115.439L11.3315 114.563ZM64.2048 120.238C60.8536 119.919 57.9173 118.964 55.3961 117.373C52.8879 115.77 50.8882 113.653 49.3969 111.022C47.9046 108.377 47.0277 105.333 46.7664 101.892C46.5115 98.5348 46.9383 95.6508 48.0467 93.2395C49.1551 90.8283 50.8363 89.0271 53.0902 87.8359C55.3582 86.6461 58.0901 86.2036 61.2858 86.5084C63.4352 86.7134 65.4624 87.2512 67.3675 88.1219C69.2856 88.9798 70.9897 90.1618 72.4798 91.6678C73.984 93.1752 75.204 95.007 76.1398 97.1633C77.0746 99.3054 77.6473 101.764 77.8581 104.541L78.0468 107.026L50.5367 104.403L50.1109 98.7937L69.1155 100.606C69.0166 99.3032 68.6461 98.1219 68.0042 97.0623C67.3622 96.0027 66.5177 95.1418 65.4707 94.4795C64.4368 93.8044 63.2623 93.4041 61.9473 93.2787C60.5757 93.1479 59.3838 93.3506 58.3717 93.8868C57.3726 94.4102 56.6164 95.1747 56.1032 96.1804C55.5889 97.1718 55.3736 98.3114 55.4573 99.5989L55.8622 104.932C55.9848 106.546 56.3877 107.97 57.0708 109.202C57.7681 110.436 58.6924 111.424 59.8438 112.166C60.9951 112.909 62.3273 113.352 63.8403 113.496C64.8443 113.592 65.7527 113.538 66.5654 113.335C67.3782 113.131 68.06 112.774 68.6109 112.264C69.1618 111.754 69.5616 111.103 69.8103 110.311L78.2092 111.661C77.9377 113.632 77.2014 115.305 76.0004 116.681C74.8124 118.044 73.2179 119.045 71.2168 119.684C69.2288 120.31 66.8915 120.495 64.2048 120.238ZM99.9022 123.643C96.551 123.323 93.6147 122.368 91.0934 120.778C88.5853 119.175 86.5855 117.058 85.0943 114.427C83.6019 111.782 82.7251 108.738 82.4638 105.296C82.2089 101.939 82.6357 99.0554 83.7441 96.6441C84.8525 94.2329 86.5337 92.4317 88.7876 91.2405C91.0556 90.0507 93.7875 89.6082 96.9832 89.913C99.1326 90.118 101.16 90.6558 103.065 91.5265C104.983 92.3844 106.687 93.5663 108.177 95.0724C109.681 96.5798 110.901 98.4116 111.837 100.568C112.772 102.71 113.345 105.169 113.555 107.945L113.744 110.431L86.2341 107.807L85.8083 102.198L104.813 104.011C104.714 102.708 104.344 101.526 103.702 100.467C103.06 99.4073 102.215 98.5464 101.168 97.8841C100.134 97.2089 98.9597 96.8087 97.6447 96.6833C96.2731 96.5524 95.0812 96.7551 94.069 97.2914C93.07 97.8148 92.3138 98.5793 91.8006 99.5849C91.2863 100.576 91.071 101.716 91.1547 103.003L91.5596 108.336C91.6822 109.951 92.0851 111.374 92.7682 112.607C93.4655 113.84 94.3898 114.828 95.5412 115.571C96.6925 116.313 98.0247 116.757 99.5377 116.901C100.542 116.997 101.45 116.943 102.263 116.739C103.076 116.535 103.757 116.179 104.308 115.669C104.859 115.159 105.259 114.508 105.508 113.716L113.907 115.065C113.635 117.036 112.899 118.71 111.698 120.086C110.51 121.449 108.915 122.45 106.914 123.088C104.926 123.714 102.589 123.899 99.9022 123.643ZM120.704 124.994L118.226 92.3608L126.986 93.1963L127.418 98.8901L127.758 98.9225C128.198 96.9537 129.079 95.5191 130.4 94.6187C131.72 93.704 133.292 93.3337 135.117 93.5077C135.569 93.5509 136.059 93.6257 136.587 93.7323C137.114 93.8388 137.58 93.9605 137.983 94.0975L138.593 102.128C138.159 101.96 137.563 101.791 136.806 101.62C136.05 101.45 135.36 101.335 134.738 101.276C133.409 101.149 132.243 101.326 131.241 101.807C130.251 102.275 129.491 102.99 128.961 103.952C128.444 104.915 128.237 106.062 128.338 107.393L129.74 125.856L120.704 124.994ZM145.313 127.341L142.01 83.8301L159.148 85.4646C162.443 85.7789 165.297 86.6769 167.712 88.1586C170.126 89.6262 172.025 91.5298 173.41 93.8695C174.808 96.1964 175.617 98.8046 175.836 101.694C176.055 104.583 175.627 107.074 174.55 109.164C173.474 111.255 171.801 112.804 169.533 113.811C167.28 114.82 164.484 115.165 161.147 114.846L150.224 113.805L149.664 106.432L159.103 107.333C160.87 107.501 162.303 107.336 163.403 106.836C164.515 106.323 165.312 105.548 165.795 104.512C166.291 103.462 166.485 102.222 166.376 100.792C166.266 99.347 165.881 98.0588 165.219 96.9271C164.571 95.7825 163.644 94.8575 162.44 94.152C161.234 93.4324 159.74 92.9876 157.958 92.8177L151.765 92.227L154.498 128.217L145.313 127.341ZM183.816 131.013L181.338 98.38L190.098 99.2155L190.53 104.909L190.87 104.942C191.31 102.973 192.191 101.538 193.512 100.638C194.832 99.7232 196.405 99.3529 198.229 99.5269C198.681 99.5701 199.171 99.6449 199.699 99.7515C200.226 99.858 200.692 99.9797 201.095 100.117L201.705 108.148C201.271 107.98 200.676 107.81 199.919 107.64C199.162 107.469 198.472 107.354 197.85 107.295C196.521 107.168 195.355 107.345 194.353 107.826C193.363 108.294 192.603 109.009 192.073 109.971C191.556 110.934 191.349 112.081 191.45 113.413L192.852 131.875L183.816 131.013ZM221.635 135.253C218.284 134.933 215.347 133.978 212.826 132.388C210.318 130.785 208.318 128.668 206.827 126.037C205.335 123.392 204.458 120.348 204.197 116.906C203.942 113.549 204.368 110.665 205.477 108.254C206.585 105.843 208.266 104.042 210.52 102.851C212.788 101.661 215.52 101.218 218.716 101.523C220.865 101.728 222.893 102.266 224.798 103.137C226.716 103.994 228.42 105.176 229.91 106.682C231.414 108.19 232.634 110.022 233.57 112.178C234.505 114.32 235.077 116.779 235.288 119.555L235.477 122.041L207.967 119.417L207.541 113.808L226.546 115.621C226.447 114.318 226.076 113.137 225.434 112.077C224.792 111.017 223.948 110.156 222.901 109.494C221.867 108.819 220.692 108.419 219.377 108.293C218.006 108.162 216.814 108.365 215.802 108.901C214.803 109.425 214.047 110.189 213.533 111.195C213.019 112.186 212.804 113.326 212.887 114.614L213.292 119.946C213.415 121.561 213.818 122.984 214.501 124.217C215.198 125.45 216.123 126.438 217.274 127.181C218.425 127.923 219.757 128.367 221.27 128.511C222.274 128.607 223.183 128.553 223.996 128.349C224.808 128.145 225.49 127.789 226.041 127.279C226.592 126.769 226.992 126.118 227.24 125.326L235.639 126.676C235.368 128.646 234.632 130.32 233.431 131.696C232.243 133.059 230.648 134.06 228.647 134.698C226.659 135.324 224.322 135.509 221.635 135.253ZM243.366 148.842L239.959 103.971L248.867 104.82L249.283 110.302L249.686 110.34C250.016 109.5 250.521 108.662 251.201 107.827C251.895 106.979 252.827 106.309 253.997 105.816C255.179 105.31 256.683 105.144 258.507 105.318C260.883 105.545 263.122 106.377 265.224 107.815C267.326 109.239 269.072 111.254 270.463 113.862C271.853 116.455 272.69 119.621 272.974 123.36C273.251 127 272.897 130.018 271.914 132.413C270.944 134.795 269.504 136.535 267.594 137.633C265.697 138.717 263.511 139.141 261.036 138.905C259.283 138.738 257.769 138.306 256.495 137.607C255.234 136.911 254.182 136.086 253.338 135.134C252.492 134.167 251.83 133.211 251.351 132.266L251.075 132.24L252.401 149.703L243.366 148.842ZM250.043 121.131C250.19 123.072 250.587 124.79 251.234 126.286C251.881 127.782 252.744 128.982 253.824 129.886C254.902 130.777 256.169 131.291 257.626 131.43C259.096 131.57 260.31 131.285 261.267 130.575C262.223 129.851 262.907 128.791 263.321 127.396C263.747 125.989 263.889 124.336 263.745 122.438C263.602 120.554 263.214 118.872 262.582 117.392C261.95 115.911 261.095 114.719 260.015 113.814C258.936 112.91 257.654 112.387 256.169 112.245C254.699 112.105 253.484 112.376 252.525 113.058C251.58 113.741 250.893 114.772 250.465 116.151C250.036 117.531 249.895 119.191 250.043 121.131Z" fill="#6DD7C4"/>
<path d="M308.699 126.644L308.957 130.053C306.754 129.842 305.246 130.15 304.433 130.975C303.633 131.788 303.31 133.213 303.465 135.252L303.841 140.198C304.007 142.393 303.865 144.164 303.414 145.513C302.976 146.864 302.255 147.878 301.252 148.555C300.248 149.233 298.993 149.648 297.486 149.801C295.98 149.966 294.255 149.957 292.31 149.771L291.901 144.377C293.43 144.522 294.587 144.42 295.371 144.07C296.155 143.719 296.663 143.123 296.895 142.281C297.14 141.441 297.212 140.346 297.109 138.996L296.624 132.608C296.549 131.621 296.647 130.709 296.918 129.871C297.189 129.033 297.747 128.333 298.592 127.769C299.436 127.192 300.668 126.8 302.286 126.594C303.917 126.375 306.054 126.392 308.699 126.644ZM288.553 100.285C290.497 100.47 292.246 100.792 293.799 101.249C295.351 101.694 296.689 102.356 297.811 103.236C298.933 104.117 299.819 105.284 300.47 106.738C301.134 108.194 301.549 110.018 301.716 112.213L302.093 117.179C302.247 119.217 302.794 120.732 303.731 121.724C304.68 122.704 306.257 123.299 308.46 123.509L308.719 126.917C306.075 126.665 303.91 126.278 302.223 125.756C300.548 125.223 299.239 124.589 298.295 123.854C297.35 123.107 296.677 122.282 296.274 121.38C295.87 120.478 295.631 119.527 295.555 118.527L295.07 112.139C294.968 110.789 294.728 109.664 294.351 108.765C293.986 107.866 293.38 107.171 292.532 106.677C291.683 106.171 290.494 105.845 288.964 105.699L288.553 100.285ZM308.46 123.509L308.957 130.053L302.794 129.465L302.297 122.921L308.46 123.509Z" fill="#F1DB65"/>
</svg>
